/* XPM */
static char *exit[] = {
"32 32 4 1",
"  c None",
". c #3A005F",
"+ c #8000FF",
"@ c #C080FF",
"                                ",
"            ........            ",
"           ..........           ",
"          ..++++++++..          ",
"         ..++++++++++..         ",
"        ..+++@@@@@@+++..        ",
"       ..++@@@@@@@@@@++..       ",
"      ..++@@@@@@@@@@@@++..      ",
"      ..++@@@@@@@@@@@@++..      ",
"     ..++@@@@@@@@@@@@@@++..     ",
"     ..++@@@@@@@@@@@@@@++..     ",
"     ..++@@@@@@@@@@@@@@++..     ",
"     ..++@@@@@@@@@@@@@@++..     ",
"     ..++@@@@@@@@@@@@@@++..     ",
"     ..++@@@@@@@@@@@@@@++..     ",
"     ..++@@@@@@@@@@@@@@++..     ",
"     ..++@@@@@@@@@@@@@@++..     ",
"     ..++@@@@@@@@@@@@@@++..     ",
"     ..++@@@@@@@@@@@@@@++..     ",
"      ..++@@@@@@@@@@@@++..      ",
"      ..++@@@@@@@@@@@@++..      ",
"       ..++@@@@@@@@@@++..       ",
"        ..+++@@@@@@+++..        ",
"         ..++++++++++..         ",
"          ..++++++++..          ",
"           ..........           ",
"            ........            ",
"                                ",
"                                ",
"                                ",
"                                ",
"                                "
};
