/* XPM */
static char *floor[] = {
"32 32 3 1",
"  c #2B2B2B",
". c #464646",
"+ c #686868",
"................................",
"..++++++++..++++++++..++++++++..",
"..++++++++..++++++++..++++++++..",
"..++++++++..++++++++..++++++++..",
"..++++++++..++++++++..++++++++..",
"..++++++++..++++++++..++++++++..",
"..++++++++..++++++++..++++++++..",
"..++++++++..++++++++..++++++++..",
"..++++++++..++++++++..++++++++..",
"..++++++++..++++++++..++++++++..",
"..++++++++..++++++++..++++++++..",
"..++++++++..++++++++..++++++++..",
"..++++++++..++++++++..++++++++..",
"..++++++++..++++++++..++++++++..",
"..++++++++..++++++++..++++++++..",
"..++++++++..++++++++..++++++++..",
"..++++++++..++++++++..++++++++..",
"..++++++++..++++++++..++++++++..",
"..++++++++..++++++++..++++++++..",
"..++++++++..++++++++..++++++++..",
"..++++++++..++++++++..++++++++..",
"..++++++++..++++++++..++++++++..",
"..++++++++..++++++++..++++++++..",
"..++++++++..++++++++..++++++++..",
"..++++++++..++++++++..++++++++..",
"..++++++++..++++++++..++++++++..",
"..++++++++..++++++++..++++++++..",
"..++++++++..++++++++..++++++++..",
"..++++++++..++++++++..++++++++..",
"..++++++++..++++++++..++++++++..",
"..++++++++..++++++++..++++++++..",
"................................"
};
