/* XPM */
static char *player[] = {
/* columns rows colors chars-per-pixel */
"32 32 5 1 ",
"  c None",
". c #000000",
"+ c #2C74B3",
"@ c #F2F2F2",
"# c #F0B87F",
/* pixels */
"                                ",
"                                ",
"          .........             ",
"         .+++++++++.            ",
"        .+++++++++++.           ",
"        .+++++++++++.           ",
"        .+++++++++++.           ",
"        .+++++++++++.           ",
"        .+++++++++++.           ",
"         .+++++++++.            ",
"          .........             ",
"         ...@@@@@...            ",
"        .###@@@@@###.           ",
"       .#####@@@#####.          ",
"       .#####@@@#####.          ",
"       .#####@@@#####.          ",
"       .##############.         ",
"       .##############.         ",
"        .############.          ",
"       .######..######.         ",
"      .#######..#######.        ",
"     .########..########.       ",
"     .########..########.       ",
"     .########..########.       ",
"     .########..########.       ",
"     ..######....######..       ",
"      ........  ........        ",
"                                ",
"                                ",
"                                ",
"                                ",
"                                "
};