/* XPM */
static char *wall[] = {
/* columns rows colors chars-per-pixel */
"32 32 3 1",
"  c #3A2F2F",
". c #5C4A4A",
"+ c #7E5E5E",
/* pixels */
"................................",
".++++++++++++++++++++++++++++++.",
".++++++++++++++++++++++++++++++.",
".++                        ++++.",
".++                        ++++.",
".++   ..................   ++++.",
".++   ..................   ++++.",
".++   ..++++++++++++++..   ++++.",
".++   ..++++++++++++++..   ++++.",
".++   ..++          ++..   ++++.",
".++   ..++          ++..   ++++.",
".++   ..++   ....   ++..   ++++.",
".++   ..++   ....   ++..   ++++.",
".++   ..++   ....   ++..   ++++.",
".++   ..++   ....   ++..   ++++.",
".++   ..++          ++..   ++++.",
".++   ..++          ++..   ++++.",
".++   ..++++++++++++++..   ++++.",
".++   ..++++++++++++++..   ++++.",
".++   ..................   ++++.",
".++   ..................   ++++.",
".++                        ++++.",
".++                        ++++.",
".++++++++++++++++++++++++++++++.",
".++++++++++++++++++++++++++++++.",
".++++++++++++++++++++++++++++++.",
".++++++++++++++++++++++++++++++.",
".++++++++++++++++++++++++++++++.",
".++++++++++++++++++++++++++++++.",
".++++++++++++++++++++++++++++++.",
".++++++++++++++++++++++++++++++.",
"................................"
};