/* XPM */
static char *exit_on_floor[] = {
"32 32 5 1",
"  c #2E2B2B",
". c #3A005F",
"+ c #8000FF",
"@ c #C080FF",
"# c #4F4B4B",
"################################",
"################################",
"##.. .#####################  .##",
"##.. .#####################  .##",
"##.. .#####################  .##",
"##.. .#####################  .##",
"####            ........    ####",
"####           ..........   ####",
"####          ..++++++++..  ####",
"####         ..++++++++++.. ####",
"##########++..+++@@@@@@+++..####",
"##########++..++@@@@@@@@@@++####",
"##########++..++@@@@@@@@@@@@++##",
"##########++..++@@@@@@@@@@@@++##",
"##########++..++@@@@@@@@@@@@@@++",
"##########++..++@@@@@@@@@@@@@@++",
"##########++..++@@@@@@@@@@@@@@++",
"##########++..++@@@@@@@@@@@@@@++",
"##########++..++@@@@@@@@@@@@@@++",
"##########++..++@@@@@@@@@@@@@@++",
"##########++..++@@@@@@@@@@@@@@++",
"###########..++@@@@@@@@@@@@++..#",
"###########..++@@@@@@@@@@@@++..#",
"############..++@@@@@@@@@@++..##",
"#############..+++@@@@@@+++..###",
"##############..++++++++++..####",
"###############..++++++++..#####",
"################..........######",
"################ ........ ######",
"################################",
"################################",
"################################"
};
